<?xml version="1.0" standalone="no"?>
<!DOCTYPE svg PUBLIC "-//W3C//DTD SVG 20010904//EN"
 "http://www.w3.org/TR/2001/REC-SVG-20010904/DTD/svg10.dtd">
<svg version="1.0" xmlns="http://www.w3.org/2000/svg"
 width="75.000000pt" height="75.000000pt" viewBox="0 0 75.000000 75.000000"
 preserveAspectRatio="xMidYMid meet">
<metadata>
Created by potrace 1.14, written by Peter Selinger 2001-2017
</metadata>
<g transform="translate(0.000000,75.000000) scale(0.100000,-0.100000)"
fill="#000000" stroke="none">
<path d="M105 737 c3 -7 -11 -19 -35 -30 -22 -9 -40 -19 -40 -22 0 -2 6 -2 13
1 8 3 27 0 43 -7 27 -10 27 -12 9 -19 -11 -4 -27 -5 -35 -2 -11 5 -11 2 2 -12
15 -14 24 -16 50 -7 95 30 100 31 95 18 -2 -6 -14 -13 -26 -15 -12 -2 -24 -9
-27 -16 -3 -8 -25 -13 -55 -14 -36 -1 -48 2 -43 11 4 7 -4 2 -18 -11 -13 -12
-28 -19 -31 -15 -4 3 -7 -3 -7 -14 0 -16 5 -19 32 -15 18 2 41 11 50 19 9 8
21 13 25 10 5 -3 58 5 119 18 60 13 126 24 147 25 23 0 44 7 57 20 14 14 33
20 63 19 37 0 39 -1 18 -10 -13 -5 -22 -11 -20 -13 8 -7 199 -15 214 -10 8 4
15 12 15 20 0 8 7 14 15 14 10 0 15 11 15 35 l0 35 -118 -2 c-70 -1 -130 -7
-151 -15 -29 -11 -32 -11 -27 2 6 18 -38 21 -78 5 -17 -6 -26 -6 -26 0 0 15
-114 12 -129 -2 -11 -10 -13 -10 -7 0 8 13 -6 15 -41 6 -13 -4 -20 -10 -17
-15 3 -5 -1 -9 -9 -9 -8 0 -17 7 -21 15 -3 8 -10 15 -15 15 -6 0 -8 -6 -6 -13z
m95 -7 c0 -5 -5 -10 -11 -10 -5 0 -7 5 -4 10 3 6 8 10 11 10 2 0 4 -4 4 -10z
m140 -35 c-13 -16 11 -28 38 -18 14 6 15 4 4 -9 -15 -18 -85 -16 -109 4 -11 9
-16 9 -23 -1 -5 -9 -10 -10 -14 -3 -4 7 9 15 31 22 21 5 45 14 53 19 19 13 34
3 20 -14z m-230 11 c0 -2 -9 -6 -20 -9 -11 -3 -18 -1 -14 4 5 9 34 13 34 5z"/>
<path d="M0 649 c0 -22 13 -25 29 -5 9 11 7 15 -9 19 -15 4 -20 0 -20 -14z"/>
<path d="M526 617 c5 -14 -34 -62 -44 -53 -3 3 2 14 11 23 15 17 13 18 -29 21
-27 2 -44 -1 -44 -8 0 -8 11 -9 29 -5 26 6 29 4 24 -14 -6 -22 -18 -27 -27
-12 -3 5 -22 5 -42 1 -20 -5 -46 -5 -58 0 -20 8 -20 9 -1 10 11 0 27 5 35 10
13 9 13 11 0 20 -9 5 -19 5 -24 0 -4 -4 -14 -6 -21 -3 -8 2 -21 -7 -31 -22
-13 -20 -19 -23 -25 -13 -7 10 -9 8 -9 -6 0 -11 -5 -16 -14 -13 -13 5 -27 -21
-23 -40 4 -15 45 -9 95 13 51 23 114 35 67 13 -17 -8 -16 -9 5 -4 14 3 43 8
65 10 60 6 65 8 59 17 -4 5 3 4 15 -3 17 -12 23 -10 44 9 26 24 37 28 37 11 0
-5 -4 -8 -9 -5 -5 3 -11 -1 -14 -8 -4 -11 2 -14 25 -13 19 1 33 -3 36 -12 3
-8 0 -11 -6 -7 -6 3 -14 1 -18 -5 -5 -8 -8 -8 -14 1 -5 8 -9 7 -14 -5 -5 -15
0 -17 38 -14 24 2 43 3 41 1 -2 -2 3 -11 10 -20 8 -10 22 -27 32 -40 18 -23
18 -21 21 74 l2 96 -24 -6 c-15 -4 -26 -1 -28 6 -3 8 -12 9 -36 0 -18 -6 -32
-8 -32 -4 0 4 -12 8 -26 8 -18 2 -24 -2 -20 -12 3 -7 1 -16 -4 -19 -6 -4 -10
1 -10 9 0 9 -4 16 -10 16 -6 0 -6 -9 0 -26 8 -20 7 -25 -2 -22 -7 3 -14 17
-16 31 -2 15 -7 27 -12 27 -5 0 -7 -6 -4 -13z m203 -102 c0 -5 -6 1 -14 15 -8
14 -14 34 -14 45 0 13 5 8 14 -15 7 -19 14 -39 14 -45z"/>
<path d="M170 538 c0 -4 -9 -8 -21 -8 -15 0 -19 -5 -15 -16 3 -8 2 -12 -4 -9
-6 4 -18 -1 -27 -10 -15 -15 -13 -16 18 -10 19 3 42 7 51 9 24 3 35 16 14 16
-9 0 -15 4 -11 10 3 5 12 7 19 4 7 -3 18 1 24 9 10 11 6 14 -18 14 -17 0 -30
-4 -30 -9z"/>
<path d="M35 520 c-3 -5 -1 -10 4 -10 6 0 11 5 11 10 0 6 -2 10 -4 10 -3 0 -8
-4 -11 -10z"/>
<path d="M540 515 c-7 -8 -8 -15 -2 -15 5 0 15 7 22 15 7 8 8 15 2 15 -5 0
-15 -7 -22 -15z"/>
<path d="M320 484 c0 -8 5 -12 10 -9 6 3 10 10 10 16 0 5 -4 9 -10 9 -5 0 -10
-7 -10 -16z"/>
<path d="M402 488 c5 -15 28 -23 28 -10 0 5 -7 13 -16 16 -10 4 -14 1 -12 -6z"/>
<path d="M0 475 c0 -8 4 -15 10 -15 5 0 7 7 4 15 -4 8 -8 15 -10 15 -2 0 -4
-7 -4 -15z"/>
<path d="M605 480 c-19 -8 -19 -9 2 -9 12 -1 25 4 28 9 7 12 -2 12 -30 0z"/>
<path d="M285 469 c-4 -6 -5 -12 -2 -15 2 -3 7 2 10 11 7 17 1 20 -8 4z"/>
<path d="M74 443 c-13 -6 -25 -9 -28 -6 -3 3 -8 -1 -12 -10 -3 -9 -12 -13 -20
-10 -8 3 -14 -1 -14 -11 0 -9 5 -15 11 -13 6 1 14 -4 16 -11 3 -7 -1 -11 -8
-10 -18 4 -24 -33 -7 -43 21 -13 28 -11 22 9 -5 13 -4 14 4 3 5 -7 15 -10 22
-6 9 6 9 10 -1 17 -10 7 -4 8 18 4 26 -4 93 16 93 28 0 8 -56 3 -67 -6 -7 -5
-13 -5 -17 1 -4 5 3 13 15 16 11 4 18 13 15 20 -2 7 4 15 15 18 10 3 19 10 19
15 0 13 -48 10 -76 -5z"/>
<path d="M334 451 c4 -5 0 -12 -6 -14 -8 -4 -9 -6 -2 -6 6 -1 17 6 24 14 10
12 9 15 -4 15 -10 0 -15 -4 -12 -9z"/>
<path d="M240 441 c0 -17 18 -21 24 -6 3 9 0 15 -9 15 -8 0 -15 -4 -15 -9z"/>
<path d="M462 432 c-22 -17 -22 -17 -2 -30 17 -10 19 -16 9 -33 -8 -16 -8 -20
0 -15 6 4 22 9 36 12 20 3 23 1 19 -13 -20 -63 -48 -86 -39 -31 5 26 4 29 -9
19 -23 -19 -53 -228 -37 -259 5 -10 5 -27 -1 -42 l-10 -25 -11 25 c-5 14 -9
31 -8 37 1 8 -4 10 -14 7 -19 -8 -19 -17 3 -51 20 -32 82 -47 82 -19 0 8 -5
18 -12 22 -7 4 -8 3 -4 -4 4 -7 2 -12 -3 -12 -16 0 -14 20 2 26 18 6 67 -13
67 -26 0 -5 -5 -10 -11 -10 -5 0 -7 5 -3 12 4 7 3 8 -4 4 -19 -11 -14 -26 8
-26 11 0 20 5 20 10 0 6 5 10 11 10 5 0 8 -3 6 -8 -3 -4 39 -8 93 -10 l98 -2
1 121 1 121 -29 -21 c-16 -12 -34 -21 -39 -21 -6 0 -18 -7 -27 -16 -10 -11
-24 -14 -41 -10 -26 7 -25 7 18 38 23 17 49 40 56 50 7 10 20 18 29 18 14 0
14 -3 -2 -20 -10 -11 -13 -20 -8 -20 6 0 14 8 17 17 6 15 8 15 16 3 6 -8 10
-10 10 -4 0 5 -5 15 -12 22 -9 9 -9 15 0 24 11 11 18 88 8 88 -3 0 -17 -5 -33
-11 -22 -8 -24 -12 -13 -20 13 -7 13 -10 1 -18 -11 -7 -11 -9 0 -13 23 -8 6
-17 -38 -20 -26 -2 -39 -7 -36 -15 3 -8 14 -8 36 -2 17 5 33 7 35 4 2 -2 -16
-9 -39 -16 -36 -9 -40 -13 -24 -19 19 -7 19 -7 -1 -18 -12 -6 -24 -8 -28 -5
-3 3 -6 1 -6 -5 0 -7 -9 -12 -20 -12 -11 0 -20 5 -20 10 0 6 5 10 10 10 6 0 8
11 4 26 -5 21 -4 25 6 19 9 -5 11 -4 6 4 -12 18 -23 4 -41 -49 -9 -28 -21 -50
-27 -50 -5 0 -8 4 -6 8 2 4 12 31 22 60 12 32 26 52 35 52 14 0 14 1 1 10 -8
5 -10 10 -4 10 5 0 19 7 30 16 18 15 18 15 -8 9 -17 -3 -28 -1 -28 5 0 17 29
23 45 10 22 -19 63 -3 80 30 9 17 12 30 7 30 -5 0 -14 -11 -20 -24 -7 -16 -19
-23 -37 -23 -24 0 -26 3 -22 26 5 24 4 24 -9 6 -8 -11 -26 -19 -46 -19 -26 -1
-35 5 -46 27 -15 32 -19 32 -50 9z m28 -186 c0 -2 -8 -10 -17 -17 -16 -13 -17
-12 -4 4 13 16 21 21 21 13z m189 -77 c-16 -10 -23 -4 -14 10 3 6 11 8 17 5 6
-4 5 -9 -3 -15z m-193 -44 c-6 -38 -5 -45 9 -45 15 0 45 -22 45 -33 0 -3 -16
3 -35 11 -38 18 -51 38 -35 57 6 7 10 17 9 21 -3 16 1 34 7 34 4 0 3 -20 0
-45z m89 19 c13 -5 14 -8 3 -15 -18 -12 -58 -11 -58 0 0 5 8 12 18 14 9 3 18
5 19 6 1 0 9 -2 18 -5z m15 -34 c0 -5 -4 -10 -10 -10 -5 0 -10 5 -10 10 0 6 5
10 10 10 6 0 10 -4 10 -10z m-4 -65 c-4 -38 -16 -43 -16 -7 0 18 4 32 9 32 5
0 8 -11 7 -25z"/>
<path d="M207 425 c-4 -8 -3 -16 1 -19 4 -3 9 4 9 15 2 23 -3 25 -10 4z"/>
<path d="M636 414 c-5 -14 -4 -15 9 -4 17 14 19 20 6 20 -5 0 -12 -7 -15 -16z"/>
<path d="M375 400 c-21 -23 -17 -25 19 -7 14 8 23 17 19 20 -10 11 -19 8 -38
-13z"/>
<path d="M300 396 c0 -24 17 -28 23 -6 3 13 0 20 -9 20 -8 0 -14 -6 -14 -14z"/>
<path d="M700 399 c0 -5 5 -7 10 -4 6 3 10 8 10 11 0 2 -4 4 -10 4 -5 0 -10
-5 -10 -11z"/>
<path d="M180 385 c0 -8 0 -18 0 -22 0 -4 6 -8 13 -9 9 -1 12 6 9 22 -5 26
-22 33 -22 9z"/>
<path d="M225 390 c-3 -5 -2 -10 4 -10 5 0 13 5 16 10 3 6 2 10 -4 10 -5 0
-13 -4 -16 -10z"/>
<path d="M336 373 c-6 -14 -5 -15 5 -6 7 7 10 15 7 18 -3 3 -9 -2 -12 -12z"/>
<path d="M421 378 c-1 -21 -37 -42 -58 -34 -9 4 -22 1 -29 -5 -8 -7 -14 -7
-14 -2 0 6 -11 8 -25 5 -14 -2 -25 -7 -25 -11 0 -4 -9 -7 -20 -7 -11 0 -20 3
-20 6 0 4 -18 6 -39 5 -29 -1 -38 2 -34 12 4 10 -3 9 -25 -4 -16 -9 -28 -22
-26 -28 3 -7 -15 -10 -51 -10 -30 1 -55 -2 -55 -7 0 -4 10 -8 23 -8 12 0 29
-5 37 -11 12 -9 12 -10 -3 -5 -24 8 -38 -1 -31 -18 4 -11 13 -12 36 -6 25 8
28 7 18 -5 -10 -12 -9 -15 9 -15 12 0 21 6 21 14 0 34 68 63 85 36 4 -6 -6 -8
-24 -6 -30 3 -39 -3 -24 -17 3 -4 13 -1 21 6 13 10 15 9 9 -7 -4 -10 -3 -24 2
-30 8 -9 -5 -12 -50 -11 -35 1 -68 -4 -77 -12 -9 -7 -25 -13 -34 -13 -15 0
-18 -9 -18 -53 0 -29 6 -59 13 -66 9 -11 9 -13 0 -7 -9 5 -13 -3 -13 -28 l0
-34 139 -1 c104 -1 140 2 144 11 4 10 8 10 16 -2 9 -13 11 -13 11 3 0 22 16
22 29 -1 9 -15 12 -15 21 -2 13 21 13 43 -2 34 -8 -5 -9 0 -5 17 6 22 5 23 -8
6 -7 -10 -15 -15 -18 -10 -8 13 29 52 52 56 32 5 38 17 45 87 3 36 7 81 10
100 5 34 5 34 -4 -3 -13 -51 -29 -79 -41 -72 -5 4 -9 1 -9 -6 0 -8 -4 -8 -15
1 -20 17 -62 5 -70 -20 -3 -11 -11 -20 -16 -20 -13 0 -11 18 3 22 7 3 6 7 -5
11 -9 3 -17 2 -17 -4 0 -6 -10 -3 -22 5 -12 9 -30 16 -40 16 -10 0 -18 4 -18
9 0 11 69 20 126 17 31 -2 41 1 34 9 -6 7 0 12 21 13 16 1 29 -2 29 -8 0 -5
-5 -10 -11 -10 -5 0 -7 -5 -4 -10 10 -16 23 -2 30 33 3 17 11 44 17 59 5 15 8
33 5 40 -4 9 -6 7 -6 -4z m-66 -48 c3 -5 1 -10 -4 -10 -6 0 -11 5 -11 10 0 6
2 10 4 10 3 0 8 -4 11 -10z m-50 -45 c-22 -18 -32 -21 -42 -13 -20 16 -15 26
11 21 13 -3 27 0 30 6 4 6 12 11 18 11 6 0 -2 -11 -17 -25z m-205 -5 c0 -5 -2
-10 -4 -10 -3 0 -8 5 -11 10 -3 6 -1 10 4 10 6 0 11 -4 11 -10z m140 -5 c0 -8
-4 -15 -9 -15 -5 0 -11 7 -15 15 -3 9 0 15 9 15 8 0 15 -7 15 -15z m-58 -145
c-5 -48 -18 -61 -17 -16 1 27 10 56 18 56 2 0 1 -18 -1 -40z m-49 0 c3 -11 0
-23 -6 -27 -7 -3 -9 -3 -5 2 4 4 3 16 -3 26 -5 11 -6 19 -1 19 6 0 12 -9 15
-20z m-81 -62 c-7 -7 -12 -8 -12 -2 0 14 12 26 19 19 2 -3 -1 -11 -7 -17z m89
9 c-1 -12 -15 -9 -19 4 -3 6 1 10 8 8 6 -3 11 -8 11 -12z m-51 -7 c0 -5 -2
-10 -4 -10 -3 0 -8 5 -11 10 -3 6 -1 10 4 10 6 0 11 -4 11 -10z"/>
<path d="M265 370 c-3 -6 1 -7 9 -4 18 7 21 14 7 14 -6 0 -13 -4 -16 -10z"/>
<path d="M225 360 c3 -5 8 -10 11 -10 2 0 4 5 4 10 0 6 -5 10 -11 10 -5 0 -7
-4 -4 -10z"/>
<path d="M614 335 c-19 -14 -19 -14 2 -15 12 0 24 7 28 15 7 19 -5 19 -30 0z"/>
<path d="M67 333 c-12 -12 -7 -22 8 -17 8 4 15 10 15 15 0 11 -14 12 -23 2z"/>
</g>
</svg>
